# xmcd CD database file
#
# Track frame offsets:
#	150
#	29805
#	43099
#	53569
#	74611
#	101918
#	118732
#	141754
#	170574
#	180586
#	191820
#	215345
#	233269
#	258249
#	280531
#	291988
#
# Disc length: 4049 seconds
#
# Revision: 1
# Processed by: cddbd v1.5PL3 Copyright (c) Steve Scherf et al.
# Submitted via: CDex 1.51
#
DISCID=f40fcf10
DTITLE=Arild Andersen - Sagn
DYEAR=1991
DGENRE=Jazz
TTITLE0=Sagn
TTITLE1=Gardsjenta
TTITLE2=Eisemo
TTITLE3=Toll
TTITLE4=Draum
TTITLE5=Laurdagskveld
TTITLE6=Tjovane
TTITLE7=Sorgmild
TTITLE8=Svarm
TTITLE9=Gamlestev
TTITLE10=Reven
TTITLE11=Nystev
TTITLE12=Lussi
TTITLE13=Rysen
TTITLE14=Belare
TTITLE15=Sagn (2)
EXTD=YEAR: 1991
EXTT0=
EXTT1=
EXTT2=
EXTT3=
EXTT4=
EXTT5=
EXTT6=
EXTT7=
EXTT8=
EXTT9=
EXTT10=
EXTT11=
EXTT12=
EXTT13=
EXTT14=
EXTT15=
PLAYORDER=
